<?xml version="1.0" encoding="UTF-8"?>
<svg xmlns="http://www.w3.org/2000/svg" viewBox="0 0 400 400" role="img" aria-label="Penguin dressed">
  <rect width="400" height="400" fill="#dbeafe"/>
  <polygon points="200,55 165,95 235,95" fill="#1e293b"/>
  <rect x="165" y="95" width="70" height="12" fill="#1e293b"/>
  <ellipse cx="200" cy="250" rx="95" ry="110" fill="#1e293b"/>
  <ellipse cx="200" cy="265" rx="62" ry="78" fill="#f8fafc"/>
  <circle cx="200" cy="135" r="58" fill="#1e293b"/>
  <circle cx="200" cy="145" r="38" fill="#f8fafc"/>
  <circle cx="185" cy="125" r="7" fill="#fff"/><circle cx="185" cy="125" r="3" fill="#0f172a"/>
  <circle cx="215" cy="125" r="7" fill="#fff"/><circle cx="215" cy="125" r="3" fill="#0f172a"/>
  <polygon points="200,138 188,152 212,152" fill="#f97316"/>
  <rect x="138" y="210" width="124" height="90" rx="8" fill="#334155"/>
  <rect x="150" y="222" width="100" height="12" fill="#94a3b8"/>
  <ellipse cx="170" cy="355" rx="22" ry="12" fill="#f97316"/>
  <ellipse cx="230" cy="355" rx="22" ry="12" fill="#f97316"/>
</svg>
