<?xml version="1.0" encoding="UTF-8"?>
<svg xmlns="http://www.w3.org/2000/svg" viewBox="0 0 400 400" role="img" aria-label="Penguin watering">
  <rect width="400" height="400" fill="#dbeafe"/>
  <ellipse cx="200" cy="250" rx="95" ry="110" fill="#1e293b"/>
  <ellipse cx="200" cy="265" rx="62" ry="78" fill="#f8fafc"/>
  <circle cx="200" cy="135" r="58" fill="#1e293b"/>
  <circle cx="200" cy="145" r="38" fill="#f8fafc"/>
  <circle cx="185" cy="125" r="7" fill="#fff"/><circle cx="185" cy="125" r="3" fill="#0f172a"/>
  <circle cx="215" cy="125" r="7" fill="#fff"/><circle cx="215" cy="125" r="3" fill="#0f172a"/>
  <polygon points="200,138 188,152 212,152" fill="#f97316"/>
  <path d="M260 190h35v55a18 18 0 01-36 0V190z" fill="#16a34a"/>
  <path d="M278 245c0 0 8 18 0 28" fill="none" stroke="#38bdf8" stroke-width="4"/>
  <ellipse cx="170" cy="355" rx="22" ry="12" fill="#f97316"/>
  <ellipse cx="230" cy="355" rx="22" ry="12" fill="#f97316"/>
</svg>
